<mxfile host="app.diagrams.net" agent="Mozilla/5.0 (Macintosh; Intel Mac OS X 10_15_7) AppleWebKit/537.36 (KHTML, like Gecko) Chrome/137.0.0.0 Safari/537.36" version="27.2.0">
  <diagram name="Page-1" id="vb9et2oM853eMsnH1ROn">
    <mxGraphModel dx="946" dy="610" grid="1" gridSize="10" guides="1" tooltips="1" connect="1" arrows="1" fold="1" page="1" pageScale="1" pageWidth="827" pageHeight="1169" math="0" shadow="0">
      <root>
        <mxCell id="0" />
        <mxCell id="1" parent="0" />
        <mxCell id="lweCL0Kr5fcyjcAuRy5--2" value="Mosfet Switch" style="rounded=0;whiteSpace=wrap;html=1;fillColor=#60a917;strokeColor=#2D7600;fontColor=#ffffff;spacingBottom=-18;" parent="1" vertex="1">
          <mxGeometry x="200" y="200" width="80" height="120" as="geometry" />
        </mxCell>
        <mxCell id="lweCL0Kr5fcyjcAuRy5--4" value="-" style="rounded=0;whiteSpace=wrap;html=1;fillColor=#f5f5f5;strokeColor=#292929;fontColor=#333333;" parent="1" vertex="1">
          <mxGeometry x="200" y="200" width="40" height="30" as="geometry" />
        </mxCell>
        <mxCell id="lweCL0Kr5fcyjcAuRy5--5" value="&lt;font style=&quot;color: rgb(255, 0, 0);&quot;&gt;+&lt;/font&gt;" style="rounded=0;whiteSpace=wrap;html=1;fillColor=#fad9d5;strokeColor=#ae4132;" parent="1" vertex="1">
          <mxGeometry x="200" y="230" width="40" height="30" as="geometry" />
        </mxCell>
        <mxCell id="lweCL0Kr5fcyjcAuRy5--6" value="-" style="rounded=0;whiteSpace=wrap;html=1;fillColor=#f5f5f5;strokeColor=#292929;fontColor=#333333;" parent="1" vertex="1">
          <mxGeometry x="240" y="200" width="40" height="30" as="geometry" />
        </mxCell>
        <mxCell id="lweCL0Kr5fcyjcAuRy5--7" value="&lt;span style=&quot;color: rgb(255, 0, 0);&quot;&gt;+&lt;/span&gt;" style="rounded=0;whiteSpace=wrap;html=1;fillColor=#fad9d5;strokeColor=#ae4132;" parent="1" vertex="1">
          <mxGeometry x="240" y="230" width="40" height="30" as="geometry" />
        </mxCell>
        <mxCell id="lweCL0Kr5fcyjcAuRy5--8" value="S2" style="rounded=0;whiteSpace=wrap;html=1;direction=south;fillColor=#f8cecc;strokeColor=#b85450;" parent="1" vertex="1">
          <mxGeometry x="210" y="280" width="30" height="40" as="geometry" />
        </mxCell>
        <mxCell id="lweCL0Kr5fcyjcAuRy5--17" value="GND" style="rounded=0;whiteSpace=wrap;html=1;fillColor=#f5f5f5;strokeColor=#292929;fontColor=#333333;direction=south;" parent="1" vertex="1">
          <mxGeometry x="240" y="280" width="30" height="40" as="geometry" />
        </mxCell>
        <mxCell id="lweCL0Kr5fcyjcAuRy5--18" value="Mosfet Switch" style="rounded=0;whiteSpace=wrap;html=1;fillColor=#60a917;strokeColor=#2D7600;fontColor=#ffffff;spacingBottom=-18;" parent="1" vertex="1">
          <mxGeometry x="360" y="200" width="80" height="120" as="geometry" />
        </mxCell>
        <mxCell id="lweCL0Kr5fcyjcAuRy5--19" value="-" style="rounded=0;whiteSpace=wrap;html=1;fillColor=#f5f5f5;strokeColor=#292929;fontColor=#333333;" parent="1" vertex="1">
          <mxGeometry x="360" y="200" width="40" height="30" as="geometry" />
        </mxCell>
        <mxCell id="lweCL0Kr5fcyjcAuRy5--20" value="&lt;span style=&quot;color: rgb(255, 0, 0);&quot;&gt;+&lt;/span&gt;" style="rounded=0;whiteSpace=wrap;html=1;fillColor=#fad9d5;strokeColor=#ae4132;" parent="1" vertex="1">
          <mxGeometry x="360" y="230" width="40" height="30" as="geometry" />
        </mxCell>
        <mxCell id="lweCL0Kr5fcyjcAuRy5--21" value="-" style="rounded=0;whiteSpace=wrap;html=1;fillColor=#f5f5f5;strokeColor=#292929;fontColor=#333333;" parent="1" vertex="1">
          <mxGeometry x="400" y="200" width="40" height="30" as="geometry" />
        </mxCell>
        <mxCell id="lweCL0Kr5fcyjcAuRy5--22" value="&lt;span style=&quot;color: rgb(255, 0, 0);&quot;&gt;+&lt;/span&gt;" style="rounded=0;whiteSpace=wrap;html=1;fillColor=#fad9d5;strokeColor=#ae4132;" parent="1" vertex="1">
          <mxGeometry x="400" y="230" width="40" height="30" as="geometry" />
        </mxCell>
        <mxCell id="lweCL0Kr5fcyjcAuRy5--23" value="S1" style="rounded=0;whiteSpace=wrap;html=1;direction=south;fillColor=#f8cecc;strokeColor=#b85450;" parent="1" vertex="1">
          <mxGeometry x="370" y="280" width="30" height="40" as="geometry" />
        </mxCell>
        <mxCell id="lweCL0Kr5fcyjcAuRy5--24" value="GND" style="rounded=0;whiteSpace=wrap;html=1;fillColor=#f5f5f5;strokeColor=#292929;fontColor=#333333;direction=south;" parent="1" vertex="1">
          <mxGeometry x="400" y="280" width="30" height="40" as="geometry" />
        </mxCell>
        <mxCell id="lweCL0Kr5fcyjcAuRy5--25" value="" style="endArrow=none;html=1;rounded=0;" parent="1" edge="1">
          <mxGeometry width="50" height="50" relative="1" as="geometry">
            <mxPoint x="280" y="211" as="sourcePoint" />
            <mxPoint x="360" y="211" as="targetPoint" />
          </mxGeometry>
        </mxCell>
        <mxCell id="lweCL0Kr5fcyjcAuRy5--26" value="" style="endArrow=none;html=1;rounded=0;fillColor=#e51400;strokeColor=#B20000;exitX=0.99;exitY=0.653;exitDx=0;exitDy=0;exitPerimeter=0;entryX=0.99;entryY=0.653;entryDx=0;entryDy=0;entryPerimeter=0;" parent="1" source="lweCL0Kr5fcyjcAuRy5--7" target="lweCL0Kr5fcyjcAuRy5--22" edge="1">
          <mxGeometry width="50" height="50" relative="1" as="geometry">
            <mxPoint x="280" y="253.57142857142856" as="sourcePoint" />
            <mxPoint x="440" y="254" as="targetPoint" />
            <Array as="points">
              <mxPoint x="320" y="250" />
              <mxPoint x="320" y="350" />
              <mxPoint x="480" y="350" />
              <mxPoint x="480" y="250" />
            </Array>
          </mxGeometry>
        </mxCell>
        <mxCell id="lweCL0Kr5fcyjcAuRy5--27" value="SW1" style="whiteSpace=wrap;html=1;aspect=fixed;" parent="1" vertex="1">
          <mxGeometry x="510" y="440" width="33" height="33" as="geometry" />
        </mxCell>
        <mxCell id="lweCL0Kr5fcyjcAuRy5--28" value="" style="endArrow=none;html=1;rounded=0;entryX=0.311;entryY=-0.007;entryDx=0;entryDy=0;fillColor=#e51400;strokeColor=#B20000;entryPerimeter=0;" parent="1" target="lweCL0Kr5fcyjcAuRy5--27" edge="1">
          <mxGeometry width="50" height="50" relative="1" as="geometry">
            <mxPoint x="440" y="240" as="sourcePoint" />
            <mxPoint x="530" y="240" as="targetPoint" />
            <Array as="points">
              <mxPoint x="520" y="240" />
            </Array>
          </mxGeometry>
        </mxCell>
        <mxCell id="lweCL0Kr5fcyjcAuRy5--29" value="DC-DC" style="rounded=0;whiteSpace=wrap;html=1;fillColor=#1ba1e2;fontColor=#ffffff;strokeColor=#006EAF;" parent="1" vertex="1">
          <mxGeometry x="600" y="220" width="60" height="100" as="geometry" />
        </mxCell>
        <mxCell id="lweCL0Kr5fcyjcAuRy5--32" value="&lt;span style=&quot;color: rgb(255, 0, 0);&quot;&gt;+&lt;/span&gt;" style="rounded=0;whiteSpace=wrap;html=1;fillColor=#fad9d5;strokeColor=#ae4132;" parent="1" vertex="1">
          <mxGeometry x="630" y="220" width="30" height="20" as="geometry" />
        </mxCell>
        <mxCell id="lweCL0Kr5fcyjcAuRy5--33" value="-" style="rounded=0;whiteSpace=wrap;html=1;fillColor=#f5f5f5;strokeColor=#292929;fontColor=#333333;" parent="1" vertex="1">
          <mxGeometry x="600" y="220" width="30" height="20" as="geometry" />
        </mxCell>
        <mxCell id="lweCL0Kr5fcyjcAuRy5--35" value="" style="endArrow=none;html=1;rounded=0;entryX=0.5;entryY=0;entryDx=0;entryDy=0;" parent="1" target="lweCL0Kr5fcyjcAuRy5--33" edge="1">
          <mxGeometry width="50" height="50" relative="1" as="geometry">
            <mxPoint x="440" y="210" as="sourcePoint" />
            <mxPoint x="580" y="210" as="targetPoint" />
            <Array as="points">
              <mxPoint x="615" y="210" />
            </Array>
          </mxGeometry>
        </mxCell>
        <mxCell id="lweCL0Kr5fcyjcAuRy5--36" value="SW2" style="whiteSpace=wrap;html=1;aspect=fixed;" parent="1" vertex="1">
          <mxGeometry x="720" y="440" width="33" height="33" as="geometry" />
        </mxCell>
        <mxCell id="lweCL0Kr5fcyjcAuRy5--40" value="" style="endArrow=none;html=1;rounded=0;entryX=0.322;entryY=0.001;entryDx=0;entryDy=0;exitX=0.5;exitY=0;exitDx=0;exitDy=0;fillColor=#e51400;strokeColor=#B20000;entryPerimeter=0;" parent="1" source="lweCL0Kr5fcyjcAuRy5--32" target="lweCL0Kr5fcyjcAuRy5--36" edge="1">
          <mxGeometry width="50" height="50" relative="1" as="geometry">
            <mxPoint x="640" y="220" as="sourcePoint" />
            <mxPoint x="690" y="170" as="targetPoint" />
            <Array as="points">
              <mxPoint x="645" y="210" />
              <mxPoint x="730" y="210" />
            </Array>
          </mxGeometry>
        </mxCell>
        <mxCell id="lweCL0Kr5fcyjcAuRy5--41" value="-" style="rounded=0;whiteSpace=wrap;html=1;fillColor=#f5f5f5;strokeColor=#292929;fontColor=#333333;" parent="1" vertex="1">
          <mxGeometry x="600" y="300" width="30" height="20" as="geometry" />
        </mxCell>
        <mxCell id="lweCL0Kr5fcyjcAuRy5--42" value="&lt;span style=&quot;color: rgb(255, 0, 0);&quot;&gt;+&lt;/span&gt;" style="rounded=0;whiteSpace=wrap;html=1;fillColor=#fad9d5;strokeColor=#ae4132;" parent="1" vertex="1">
          <mxGeometry x="630" y="300" width="30" height="20" as="geometry" />
        </mxCell>
        <mxCell id="lweCL0Kr5fcyjcAuRy5--44" value="" style="endArrow=none;html=1;rounded=0;entryX=0.318;entryY=-0.007;entryDx=0;entryDy=0;entryPerimeter=0;" parent="1" edge="1">
          <mxGeometry width="50" height="50" relative="1" as="geometry">
            <mxPoint x="440" y="220" as="sourcePoint" />
            <mxPoint x="619.54" y="439.78999999999996" as="targetPoint" />
            <Array as="points">
              <mxPoint x="580" y="220" />
              <mxPoint x="580" y="360" />
              <mxPoint x="620" y="360" />
            </Array>
          </mxGeometry>
        </mxCell>
        <mxCell id="lweCL0Kr5fcyjcAuRy5--47" value="" style="endArrow=none;html=1;rounded=0;exitX=-0.007;exitY=0.329;exitDx=0;exitDy=0;exitPerimeter=0;fillColor=#e51400;strokeColor=#B20000;" parent="1" source="lweCL0Kr5fcyjcAuRy5--20" edge="1">
          <mxGeometry width="50" height="50" relative="1" as="geometry">
            <mxPoint x="330" y="190" as="sourcePoint" />
            <mxPoint x="340" y="140" as="targetPoint" />
            <Array as="points">
              <mxPoint x="340" y="240" />
            </Array>
          </mxGeometry>
        </mxCell>
        <mxCell id="lweCL0Kr5fcyjcAuRy5--48" value="" style="endArrow=none;html=1;rounded=0;" parent="1" edge="1">
          <mxGeometry width="50" height="50" relative="1" as="geometry">
            <mxPoint x="360" y="220" as="sourcePoint" />
            <mxPoint x="350" y="140" as="targetPoint" />
            <Array as="points">
              <mxPoint x="350" y="220" />
            </Array>
          </mxGeometry>
        </mxCell>
        <mxCell id="lweCL0Kr5fcyjcAuRy5--49" value="" style="endArrow=none;html=1;rounded=0;" parent="1" edge="1">
          <mxGeometry width="50" height="50" relative="1" as="geometry">
            <mxPoint x="200" y="220" as="sourcePoint" />
            <mxPoint x="190" y="140" as="targetPoint" />
            <Array as="points">
              <mxPoint x="190" y="220" />
            </Array>
          </mxGeometry>
        </mxCell>
        <mxCell id="lweCL0Kr5fcyjcAuRy5--50" value="" style="endArrow=none;html=1;rounded=0;exitX=-0.007;exitY=0.329;exitDx=0;exitDy=0;exitPerimeter=0;fillColor=#e51400;strokeColor=#B20000;" parent="1" edge="1">
          <mxGeometry width="50" height="50" relative="1" as="geometry">
            <mxPoint x="200" y="240" as="sourcePoint" />
            <mxPoint x="180" y="140" as="targetPoint" />
            <Array as="points">
              <mxPoint x="180" y="240" />
            </Array>
          </mxGeometry>
        </mxCell>
        <mxCell id="lweCL0Kr5fcyjcAuRy5--53" value="&lt;span data-end=&quot;165&quot; data-start=&quot;159&quot;&gt;μC&lt;/span&gt;" style="rounded=0;whiteSpace=wrap;html=1;spacing=0;spacingBottom=-69;fillColor=#1ba1e2;fontColor=#ffffff;strokeColor=#006EAF;" parent="1" vertex="1">
          <mxGeometry x="60" y="210" width="60" height="110" as="geometry" />
        </mxCell>
        <mxCell id="lweCL0Kr5fcyjcAuRy5--54" value="GND" style="rounded=0;whiteSpace=wrap;html=1;fillColor=#f5f5f5;strokeColor=#292929;fontColor=#333333;" parent="1" vertex="1">
          <mxGeometry x="90" y="220" width="30" height="20" as="geometry" />
        </mxCell>
        <mxCell id="lweCL0Kr5fcyjcAuRy5--55" value="S2" style="rounded=0;whiteSpace=wrap;html=1;fillColor=#fad7ac;strokeColor=#b46504;" parent="1" vertex="1">
          <mxGeometry x="90" y="240" width="30" height="20" as="geometry" />
        </mxCell>
        <mxCell id="lweCL0Kr5fcyjcAuRy5--56" value="S1" style="rounded=0;whiteSpace=wrap;html=1;fillColor=#b1ddf0;strokeColor=#10739e;" parent="1" vertex="1">
          <mxGeometry x="90" y="260" width="30" height="20" as="geometry" />
        </mxCell>
        <mxCell id="lweCL0Kr5fcyjcAuRy5--57" value="" style="endArrow=none;html=1;rounded=0;" parent="1" edge="1">
          <mxGeometry width="50" height="50" relative="1" as="geometry">
            <mxPoint x="120" y="230" as="sourcePoint" />
            <mxPoint x="250" y="320" as="targetPoint" />
            <Array as="points">
              <mxPoint x="160" y="230" />
              <mxPoint x="160" y="340" />
              <mxPoint x="250" y="340" />
            </Array>
          </mxGeometry>
        </mxCell>
        <mxCell id="lweCL0Kr5fcyjcAuRy5--58" value="" style="endArrow=none;html=1;rounded=0;exitX=1.004;exitY=0.331;exitDx=0;exitDy=0;exitPerimeter=0;" parent="1" source="lweCL0Kr5fcyjcAuRy5--17" edge="1">
          <mxGeometry width="50" height="50" relative="1" as="geometry">
            <mxPoint x="360" y="370" as="sourcePoint" />
            <mxPoint x="410" y="320" as="targetPoint" />
            <Array as="points">
              <mxPoint x="260" y="340" />
              <mxPoint x="410" y="340" />
            </Array>
          </mxGeometry>
        </mxCell>
        <mxCell id="lweCL0Kr5fcyjcAuRy5--59" value="" style="endArrow=none;html=1;rounded=0;exitX=1;exitY=0.5;exitDx=0;exitDy=0;entryX=1;entryY=0.5;entryDx=0;entryDy=0;fillColor=#f0a30a;strokeColor=#BD7000;" parent="1" source="lweCL0Kr5fcyjcAuRy5--55" target="lweCL0Kr5fcyjcAuRy5--8" edge="1">
          <mxGeometry width="50" height="50" relative="1" as="geometry">
            <mxPoint x="120" y="255" as="sourcePoint" />
            <mxPoint x="170" y="205" as="targetPoint" />
            <Array as="points">
              <mxPoint x="150" y="250" />
              <mxPoint x="150" y="350" />
              <mxPoint x="225" y="350" />
            </Array>
          </mxGeometry>
        </mxCell>
        <mxCell id="lweCL0Kr5fcyjcAuRy5--60" value="" style="endArrow=none;html=1;rounded=0;entryX=1;entryY=0.5;entryDx=0;entryDy=0;fillColor=#1ba1e2;strokeColor=#006EAF;" parent="1" target="lweCL0Kr5fcyjcAuRy5--23" edge="1">
          <mxGeometry width="50" height="50" relative="1" as="geometry">
            <mxPoint x="120" y="270" as="sourcePoint" />
            <mxPoint x="170" y="220" as="targetPoint" />
            <Array as="points">
              <mxPoint x="140" y="270" />
              <mxPoint x="140" y="360" />
              <mxPoint x="385" y="360" />
            </Array>
          </mxGeometry>
        </mxCell>
        <mxCell id="lweCL0Kr5fcyjcAuRy5--61" value="" style="endArrow=none;html=1;rounded=0;exitX=0.5;exitY=1;exitDx=0;exitDy=0;" parent="1" source="lweCL0Kr5fcyjcAuRy5--41" edge="1">
          <mxGeometry width="50" height="50" relative="1" as="geometry">
            <mxPoint x="730" y="180" as="sourcePoint" />
            <mxPoint x="750" y="130" as="targetPoint" />
            <Array as="points">
              <mxPoint x="615" y="330" />
              <mxPoint x="750" y="330" />
            </Array>
          </mxGeometry>
        </mxCell>
        <mxCell id="lweCL0Kr5fcyjcAuRy5--65" value="" style="endArrow=none;html=1;rounded=0;exitX=0.5;exitY=1;exitDx=0;exitDy=0;fillColor=#e51400;strokeColor=#B20000;" parent="1" source="lweCL0Kr5fcyjcAuRy5--42" edge="1">
          <mxGeometry width="50" height="50" relative="1" as="geometry">
            <mxPoint x="710" y="180" as="sourcePoint" />
            <mxPoint x="760" y="130" as="targetPoint" />
            <Array as="points">
              <mxPoint x="645" y="340" />
              <mxPoint x="760" y="340" />
            </Array>
          </mxGeometry>
        </mxCell>
        <mxCell id="lweCL0Kr5fcyjcAuRy5--66" value="DC nPi" style="whiteSpace=wrap;html=1;aspect=fixed;" parent="1" vertex="1">
          <mxGeometry x="739" y="110" width="33" height="33" as="geometry" />
        </mxCell>
        <mxCell id="lweCL0Kr5fcyjcAuRy5--68" value="" style="endArrow=none;html=1;rounded=0;entryX=0.617;entryY=0;entryDx=0;entryDy=0;entryPerimeter=0;fillColor=#e51400;strokeColor=#B20000;" parent="1" edge="1">
          <mxGeometry width="50" height="50" relative="1" as="geometry">
            <mxPoint x="528.64" y="440" as="sourcePoint" />
            <mxPoint x="739.0010000000001" y="440" as="targetPoint" />
            <Array as="points">
              <mxPoint x="528.64" y="400" />
              <mxPoint x="738.64" y="400" />
            </Array>
          </mxGeometry>
        </mxCell>
        <mxCell id="lweCL0Kr5fcyjcAuRy5--69" value="" style="endArrow=none;html=1;rounded=0;fillColor=#e51400;strokeColor=#B20000;" parent="1" edge="1">
          <mxGeometry width="50" height="50" relative="1" as="geometry">
            <mxPoint x="630" y="440" as="sourcePoint" />
            <mxPoint x="630" y="400" as="targetPoint" />
          </mxGeometry>
        </mxCell>
        <mxCell id="08Wgj3E4ByMxVjSlIZ5n-3" value="Sata-Usb converter" style="rounded=0;whiteSpace=wrap;html=1;" parent="1" vertex="1">
          <mxGeometry x="155" y="110" width="60" height="33" as="geometry" />
        </mxCell>
        <mxCell id="08Wgj3E4ByMxVjSlIZ5n-5" value="Sata-Usb converter" style="rounded=0;whiteSpace=wrap;html=1;" parent="1" vertex="1">
          <mxGeometry x="315" y="110" width="60" height="33" as="geometry" />
        </mxCell>
        <mxCell id="08Wgj3E4ByMxVjSlIZ5n-8" value="" style="ellipse;whiteSpace=wrap;html=1;aspect=fixed;fontColor=#ffffff;fillColor=#e51400;strokeColor=#B20000;" parent="1" vertex="1">
          <mxGeometry x="628.5" y="398" width="3" height="3" as="geometry" />
        </mxCell>
        <mxCell id="08Wgj3E4ByMxVjSlIZ5n-9" value="DC nPi = 5V power usb-c connector" style="text;html=1;align=center;verticalAlign=middle;whiteSpace=wrap;rounded=0;" parent="1" vertex="1">
          <mxGeometry x="60" y="401" width="200" height="30" as="geometry" />
        </mxCell>
        <mxCell id="08Wgj3E4ByMxVjSlIZ5n-10" value="SW1/2 = power switch for sata to usb converters and nPi" style="text;html=1;align=center;verticalAlign=middle;whiteSpace=wrap;rounded=0;" parent="1" vertex="1">
          <mxGeometry x="55" y="423" width="320" height="30" as="geometry" />
        </mxCell>
        <mxCell id="08Wgj3E4ByMxVjSlIZ5n-11" value="DC IN" style="whiteSpace=wrap;html=1;aspect=fixed;" parent="1" vertex="1">
          <mxGeometry x="609" y="440" width="33" height="33" as="geometry" />
        </mxCell>
        <mxCell id="08Wgj3E4ByMxVjSlIZ5n-12" value="DC IN = 12V" style="text;html=1;align=center;verticalAlign=middle;whiteSpace=wrap;rounded=0;" parent="1" vertex="1">
          <mxGeometry x="59" y="443" width="80" height="30" as="geometry" />
        </mxCell>
      </root>
    </mxGraphModel>
  </diagram>
</mxfile>
